<svg xmlns="http://www.w3.org/2000/svg" width="15" height="12" viewBox="0 0 15 12"><g fill="#4EB5F4"><path d="M.33 3.197c-.124-.083-.248-.166-.33-.29v7.307c0 .291.082.582.206.83l4.203-4.94L.33 3.197zm14.258 0l-4.08 2.907 4.244 5.024c.165-.25.248-.54.248-.872V2.865a2.886 2.886 0 00-.412.332zM8.695 6.353l5.398-3.862c.412-.29.7-.664.824-1.12C14.711.58 14.011 0 13.187 0H1.772C.906 0 .165.664.04 1.536c.165.374.412.748.783.997l5.44 3.861c.7.499 1.69.499 2.43-.041z"/><path d="M9.808 6.56l-.66.457c-.494.374-1.112.54-1.689.54s-1.195-.166-1.69-.54l-.659-.456-4.368 5.107a1.8 1.8 0 001.03.332h11.415c.371 0 .7-.125.99-.29l-4.37-5.15zM.33 3.198c-.124-.083-.248-.166-.33-.29v7.307c0 .291.082.582.206.83l4.203-4.94L.33 3.197zm14.258 0l-4.08 2.907 4.244 5.024c.165-.25.248-.54.248-.872V2.865a2.886 2.886 0 00-.412.332z"/><path d="M8.695 6.353l5.398-3.862c.412-.29.7-.664.824-1.12C14.711.58 14.011 0 13.187 0H1.772C.906 0 .165.664.04 1.536c.165.374.412.748.783.997l5.44 3.861c.7.499 1.69.499 2.43-.041z"/><path d="M9.808 6.56l-.66.457c-.494.374-1.112.54-1.689.54s-1.195-.166-1.69-.54l-.659-.456-4.368 5.107a1.8 1.8 0 001.03.332h11.415c.371 0 .7-.125.99-.29l-4.37-5.15z"/></g></svg>