<svg xmlns="http://www.w3.org/2000/svg" width="10" height="15" viewBox="0 0 10 15"><g fill="#ECECEC"><path d="M8.233 0H1.767C.776 0 0 .776 0 1.767v11.25c0 .992.776 1.768 1.767 1.768h6.466c.991 0 1.767-.776 1.767-1.768V1.767C10 .776 9.224 0 8.233 0zm.603 12.5c0 .345-.258.646-.56.646H1.724c-.302 0-.56-.301-.56-.646V2.284c0-.69.517-.646.517-.646.043 0-.043.776.819.776h5.043c.948 0 .776-.776.82-.776 0 0 .516-.086.516.646V12.5h-.043z"/><path d="M5 9.397a2.457 2.457 0 100-4.914 2.457 2.457 0 000 4.914zm2.498 2.758h-5a.865.865 0 01-.862-.861c0-.475.388-.863.862-.863h5c.474 0 .862.388.862.863a.865.865 0 01-.862.861z"/></g></svg>