<svg xmlns="http://www.w3.org/2000/svg" width="16" height="16" viewBox="0 0 16 16"><path fill="#4EB5F4" d="M9.046 9.793l-.225-.188-.213.2s-.088.088-.226.214a3.938 3.938 0 01-.225.213l-.176.163-.375-.376-.213-.213-.213-.201-2.481 2.194V16h6.603v-4.2L9.046 9.792zm-2.844-.74l.188-.225-.2-.213s-.088-.088-.213-.226c-.063-.063-.138-.138-.213-.226L5.6 7.988l.376-.377.213-.213.2-.213-2.193-2.483H0v6.609h4.197l2.005-2.258zm.752-2.846l.226.188.213-.2s.087-.088.225-.214c.063-.063.138-.138.226-.213l.175-.163.376.376.213.213.213.201 2.48-2.207V0H4.7v4.2l2.255 2.007zm2.831.752l-.188.226.2.213s.088.088.214.226c.062.063.138.138.213.226l.163.175-.376.376-.213.214-.2.213 2.205 2.482H16V4.702h-4.21L9.785 6.96z"/></svg>