<svg xmlns="http://www.w3.org/2000/svg" width="117" height="116" viewBox="0 0 117 116"><g fill="#877269"><path d="M62.9 66.42l-1.057-.88-.997.938s-.411.411-1.057.998c-.293.293-.645.645-1.056.997l-.821.763-1.76-1.76-.998-.998-.997-.938-11.618 10.326v19.656h30.922V75.866L62.899 66.42zM45.765 92.47h-.234V77.157l8.507-7.569 1.76 1.702-.058.058-.176.176c-.117.118-.235.235-.352.294l-.176.176-.294.293-.176.176c-.117.118-.176.176-.293.235l-.176.176c-.117.059-.176.176-.235.235l-.117.117-.235.235-.117.117-.294.293-.293.294-.117.117-.176.176-.118.118-.117.117c-.059.058-.059.058-.059.117l-.117.117-.059.06-.117.117-.059.058-.117.118-.059.058c-.058.059-.058.059-.058.118 0 0 0 .058-.059.058-.059.059-.059.118-.117.118l-.352.352v16.429h-5.34v.058zm16.136 0h-7.745V77.216s.058-.059.058-.117l.059-.06.059-.058.058-.058.059-.06.059-.058.058-.059.06-.058.058-.059.117-.117.059-.059.117-.117.059-.059.528-.528.117-.117.176-.176.118-.118.176-.176c.058-.059.117-.059.117-.117l.235-.235.176-.176c.058-.058.176-.117.234-.235.06-.058.118-.117.176-.176.06-.058.176-.176.235-.234l.117-.118.352-.352 3.932 3.873v15.08h.176zm8.566 0h-5.574V76.042l-4.753-4.694 1.878-1.76 8.508 7.57V92.47h-.059zM49.58 62.9l.88-1.056-.938-.997s-.411-.411-.998-1.057a18.471 18.471 0 01-.998-1.056l-.762-.821 1.76-1.76.998-.998.938-.997L40.192 42.54H20.536v30.922h19.656L49.58 62.9zM23.53 45.766v-.234h15.314l7.569 8.507-1.702 1.76-.059-.058-.176-.176c-.117-.117-.234-.235-.293-.352l-.176-.176-.293-.294-.176-.176c-.118-.117-.176-.176-.235-.293l-.176-.176c-.059-.117-.176-.176-.235-.235l-.117-.117-.235-.235-.117-.117-.294-.294-.293-.293-.117-.117-.176-.176-.118-.118-.117-.117c-.059-.059-.059-.059-.117-.059l-.118-.117-.058-.059c-.06-.058-.06-.058-.118-.117l-.058-.059c-.06-.058-.06-.058-.118-.117l-.058-.059c-.06-.058-.06-.058-.118-.058 0 0-.058 0-.058-.059-.06-.059-.118-.059-.118-.117l-.352-.352h-16.43v-5.34h-.058zm0 16.136v-7.745h15.314s.058.058.117.058l.059.059.058.059.059.058.059.059.058.059.06.058.058.06.058.058c.06.058.06.058.118.117l.058.059c.06.058.06.058.118.117l.059.059.528.528c.117.176.175.176.175.235.06.058.118.117.177.176l.117.117.176.176c.059.059.059.117.117.117l.235.235.176.176c.059.059.117.176.235.235l.176.176.234.234.118.118.352.352-3.873 3.931H23.528v.059zm0 8.566v-5.574h16.429l4.694-4.753 1.76 1.878-7.57 8.508H23.53v-.059zM53.1 49.58l1.057.88.997-.938s.41-.411 1.056-.998c.294-.293.646-.645 1.056-.998l.822-.762 1.76 1.76.998.998.997.938 11.618-10.327V20.536H42.598v19.656L53.1 49.58zm17.134-26.05h.234v15.314l-8.508 7.569-1.76-1.702.059-.059.176-.176c.117-.117.234-.234.352-.293l.176-.176.293-.293.176-.176c.118-.118.176-.176.294-.235l.176-.176c.117-.059.176-.176.234-.235l.118-.117.234-.235.118-.117.293-.294.294-.293.117-.117.176-.176.117-.118.118-.117c.058-.059.058-.059.058-.117l.118-.118.058-.058.118-.118.058-.058.118-.118.058-.058c.059-.06.059-.06.059-.118 0 0 0-.058.059-.058.058-.06.058-.118.117-.118l.352-.352v-16.43h5.34v-.058zm-16.077 0h7.745v15.314s-.059.058-.059.117l-.059.059-.058.058-.059.059-.059.059-.058.058-.06.06-.058.058-.058.058-.118.118-.058.058-.118.118-.058.059-.529.528-.117.117-.176.176-.117.117-.176.176c-.059.059-.118.059-.118.118l-.234.234-.176.176c-.059.059-.176.118-.235.235l-.176.176-.235.235-.117.117-.352.352-4.107-3.814V23.528zm-8.626 0h5.574v16.429l4.753 4.694-1.877 1.76-8.45-7.51V23.528zM66.42 53.1l-.88 1.056.939.997s.41.411.997 1.056c.294.294.646.646.998 1.057l.763.821-1.76 1.76-.998.998-.939.997L75.867 73.46h19.656V42.598H75.866L66.419 53.1zm26.052 17.133v.234H77.157l-7.57-8.507 1.702-1.76.059.058.176.176c.117.117.235.235.293.352l.176.176.294.294.176.175c.117.118.176.176.234.294l.176.176c.06.117.176.176.235.235l.117.117.235.235.118.117.293.293.293.294.118.117.176.176.117.117.117.118c.059.059.059.059.118.059l.117.117.059.059.117.117.059.059.117.117.059.059c.058.058.058.058.117.058 0 0 .059 0 .059.059.059.059.117.059.117.117l.352.352h16.43v5.34h.058zm0-16.077v7.745H77.215s-.058-.059-.117-.059l-.059-.059-.058-.058-.059-.059-.059-.059-.058-.058-.06-.059-.058-.059-.058-.058-.118-.117-.058-.06c-.06-.058-.06-.058-.118-.117l-.058-.058-.528-.528-.118-.118-.176-.176-.117-.117-.176-.176c-.059-.059-.059-.117-.118-.117-.058-.06-.117-.118-.234-.235l-.176-.176c-.059-.059-.118-.176-.235-.235l-.176-.176-.235-.235-.117-.117-.352-.352 3.872-3.931h15.08v-.176zm0-8.625v5.574H76.04l-4.693 4.752-1.76-1.877 7.569-8.508H92.47v.059z"/><path d="M58.03 107.786c-27.46 0-49.757-22.297-49.757-49.757 0-27.46 22.297-49.756 49.757-49.756 27.46 0 49.756 22.297 49.756 49.756 0 27.46-22.355 49.757-49.756 49.757zm0-95.992c-25.465 0-46.236 20.712-46.236 46.235 0 25.524 20.712 46.236 46.236 46.236 25.523 0 46.235-20.712 46.235-46.236 0-25.523-20.77-46.235-46.235-46.235z"/><path d="M58.03 116C25.992 116 0 90.007 0 58.03 0 25.992 25.993 0 58.03 0c31.977 0 58.029 25.993 58.029 58.03C116 90.006 90.007 116 58.029 116zm0-112.48c-30.042 0-54.51 24.468-54.51 54.51 0 30.04 24.468 54.508 54.51 54.508 30.04 0 54.508-24.467 54.508-54.509 0-30.041-24.467-54.509-54.509-54.509z"/></g></svg>