<svg xmlns="http://www.w3.org/2000/svg" width="185" height="182" viewBox="0 0 185 182"><g fill="#1F3165"><path d="M97.93 101.294l-1.286-1.076-1.215 1.148s-.5.502-1.285 1.22c-.358.358-.786.789-1.286 1.219l-1 .933-2.143-2.152-1.214-1.22-1.215-1.148-14.142 12.626v24.033h37.642v-24.033l-12.857-11.55zm-20.786 31.852h-.286v-18.724l10.357-9.254 2.143 2.081-.072.071-.214.216c-.143.143-.286.287-.428.358l-.215.215-.357.359-.214.215c-.143.144-.214.216-.357.287l-.215.216c-.142.071-.214.215-.285.287l-.143.143-.286.287-.143.143-.357.359-.357.359-.143.143-.214.215-.143.144a30.08 30.08 0 01-.143.143c-.071.072-.071.072-.071.144l-.143.143-.072.072-.142.144-.072.071-.143.144-.071.072c-.072.071-.072.071-.072.143 0 0 0 .072-.071.072-.071.072-.071.143-.143.143l-.428.431v20.086h-6.5v.072zm19.571 0h-9.429v-18.652s.072-.072.072-.143l.071-.072.072-.072.071-.072.072-.071.071-.072.071-.072.072-.071.071-.072.143-.144.072-.071.142-.144.072-.072.643-.645.143-.144.214-.215.143-.143.214-.216c.071-.071.143-.071.143-.143l.286-.287a43.5 43.5 0 01.214-.215c.071-.072.214-.144.286-.287l.214-.215.286-.287.142-.144.429-.43 4.786 4.734v18.437h.214zm10.5 0h-6.786v-20.087l-5.785-5.739 2.285-2.152 10.357 9.254v18.724h-.071zM81.785 96.99l1.072-1.291-1.143-1.22s-.5-.502-1.214-1.291c-.357-.359-.786-.79-1.214-1.291l-.929-1.005L80.5 88.74l1.214-1.22 1.143-1.219-12.571-14.204H46.429v37.806h23.928L81.786 96.99zM50.073 76.043v-.287h18.642l9.215 10.402-2.072 2.152-.071-.072-.214-.215c-.143-.144-.286-.287-.358-.43L75 87.376l-.357-.358-.214-.216c-.143-.143-.215-.215-.286-.358l-.214-.216c-.072-.143-.215-.215-.286-.287L73.5 85.8l-.286-.287-.142-.144-.358-.358-.357-.359-.143-.143-.214-.216-.143-.143-.143-.144c-.071-.071-.071-.071-.142-.071l-.143-.144-.072-.072-.143-.143-.071-.072L71 83.36l-.071-.072c-.072-.072-.072-.072-.143-.072 0 0-.072 0-.072-.071-.071-.072-.142-.072-.142-.144l-.429-.43h-20v-6.528h-.071zm0 19.656v-9.47h18.571s.071.072.143.072l.071.072.072.072.071.071.072.072.071.072.071.072.072.071.071.072.143.144.072.071.142.144.072.071a3904.447 3904.447 0 001.143 1.148l.214.215c.071.072.071.144.143.144l.286.287.214.215c.071.072.143.215.286.287l.214.215.286.287.142.144.429.43-4.714 4.807H50.072v.215zm0 10.545v-6.815h20l5.714-5.81 2.143 2.295-9.215 10.402H50.072v-.072zM86.07 80.706l1.286 1.076 1.214-1.148s.5-.502 1.286-1.22c.357-.359.785-.789 1.285-1.22l1-.932 2.143 2.152 1.215 1.22 1.214 1.148 14.143-12.626v-23.96H73.214v24.031L86.07 80.705zm20.857-31.852h.286v18.723l-10.357 9.255-2.143-2.08.071-.072.215-.216c.142-.143.285-.287.428-.358l.214-.216.358-.358.214-.215c.143-.144.214-.216.357-.287l.214-.216c.143-.071.215-.215.286-.287a166.148 166.148 0 01.429-.43l.142-.144.358-.358.357-.359.143-.143.214-.216.143-.143.143-.144c.071-.071.071-.071.071-.143l.143-.144.071-.071.143-.144.072-.072.142-.143.072-.072c.071-.071.071-.071.071-.143 0 0 0-.072.072-.072.071-.072.071-.143.143-.143l.428-.43V48.924h6.5v-.071zm-19.643 0h9.429v18.723s-.072.072-.072.144l-.071.072-.071.071-.072.072-.071.072-.072.072-.071.071-.072.072-.071.072-.143.143-.071.072-.143.143-.072.072-.642.646-.143.143-.215.216-.142.143-.215.215c-.071.072-.143.072-.143.144l-.285.287-.215.215c-.071.072-.214.143-.285.287l-.215.215-.285.287-.143.144-.429.43-4.785-4.735V48.854h-.215zm-10.428 0h6.785V68.94l5.786 5.74-2.286 2.152-10.357-9.255V48.854h.072zm25.358 36.156l-1.071 1.291 1.142 1.22s.5.502 1.215 1.29c.357.36.785.79 1.214 1.292l.929 1.005-2.143 2.152-1.215 1.22-1.142 1.219 12.571 14.204h23.929V72.097h-23.929l-11.5 12.913zm31.714 20.947v.287h-18.643l-9.214-10.402 2.072-2.152.071.072.214.215c.143.144.286.287.357.43l.215.216.357.358.214.216c.143.143.214.215.286.358l.214.216c.072.143.214.215.286.287l.143.143.285.287.143.143.357.36.358.358.142.143.215.215.143.144.142.143c.072.072.072.072.143.072l.143.144.072.071.142.144.072.072.143.143.071.072c.072.072.072.072.143.072 0 0 .071 0 .071.071.072.072.143.072.143.144l.429.43h20v6.528h.071zm0-19.728v9.47h-18.571s-.072-.072-.143-.072l-.071-.072-.072-.071-.071-.072-.072-.072-.071-.072-.072-.071-.071-.072-.071-.072-.143-.143-.072-.072-.143-.143-.071-.072-.643-.646-.143-.143-.214-.216-.143-.143-.214-.215c-.072-.072-.072-.144-.143-.144l-.286-.287-.214-.215c-.071-.072-.143-.215-.286-.287l-.214-.215a85.804 85.804 0 00-.286-.287l-.143-.144-.428-.43 4.714-4.806h18.357v-.216zm0-10.473v6.814h-20l-5.714 5.81-2.143-2.295 9.214-10.402h18.643v.072z"/><path d="M92 151.798c-33.428 0-60.571-27.26-60.571-60.834C31.429 57.391 58.572 30.13 92 30.13c33.429 0 60.572 27.26 60.572 60.834S125.429 151.798 92 151.798zm0-117.292c-31 0-56.286 25.324-56.286 56.458 0 31.134 25.215 56.53 56.286 56.53 31.072 0 56.286-25.324 56.286-56.53S123.072 34.506 92 34.506z"/><path d="M92 161.913c-38.928 0-70.643-31.78-70.643-70.949S53.072 20.087 92 20.087c38.929 0 70.643 31.78 70.643 70.949S130.929 161.913 92 161.913zm0-137.522c-36.571 0-66.285 29.843-66.285 66.573 0 36.73 29.785 66.645 66.357 66.645 36.571 0 66.357-29.915 66.357-66.645S128.572 24.391 92 24.391zM80.5 6.6l-.714-1.076.5 5.882.357 1.507-2.215.215L77.5 3.013l-.429-1.793 1.857-.144 5.643 6.672L88.428.215 90 .072l.928 10.402.358 1.506-2.5.215-.643-7.389-.429 1.22-3 5.452zm20.358 1.363l-.429.43-4.929-.286c0 1.434.643 2.654 2.072 2.726 1.571.071 3.071-1.077 3.071-1.077l.215 1.866s-1.5 1.22-3.786 1.076c-2.643-.144-3.929-2.44-3.786-4.807.143-2.582 1.572-4.95 4.572-4.734 3 .071 3 3.443 3 4.806zm-5.215-1.506l3 .143c0-.86-.214-2.009-1.214-2.08-1 0-1.5.86-1.786 1.937zm7.643-1.579s1.5-1.148 3.928-.717c1.429.287 2.929 1.148 2.572 2.941L109 11.693c-.214 1.077.5 2.296.5 2.296l-2.286-.143s-.357-.574-.428-1.22c-.786.574-1.858.86-2.858.646-1.5-.287-2.357-1.579-2.142-2.726.285-1.866 2.428-3.013 5.571-2.583l.071-.359c.215-1.22-.142-1.865-.857-2.008-1.357-.216-2.643.932-2.643.932l-.642-1.65zm3.5 6.457l.285-1.794c-.857-.071-2.785-.215-3 1.148-.071.502.143 1.004.857 1.148.643.072 1.429-.144 1.858-.502zm4.5.358s1.071 1.579 2.357 2.01c.643.143 1.357.07 1.5-.503.357-1.363-3.786-2.583-3.072-5.094.572-2.152 2.429-2.295 4.215-1.793 1.5.43 2.285 1.291 2.285 1.291l-.857 1.579s-.643-1.005-2.214-1.435c-.571-.144-1.214 0-1.357.502-.429 1.363 3.857 2.439 3 5.309-.5 1.793-2.072 2.367-4 1.793-1.929-.574-2.643-1.865-2.643-1.865l.786-1.794zm12.571 7.461s-.215-.717-.072-1.363c0 0-1.571.646-3.285-.072-1.286-.502-2.215-1.721-1.643-3.156l1.928-4.807.429-1.793 2.357.717-2.071 5.022c-.572 1.435-.715 2.152.142 2.44 1.358.573 2.5-.144 2.5-.144l1.715-4.161.428-1.794 2.357.718L126 17.289c-.429 1.004 0 2.367 0 2.367l-2.143-.502zm11.643-1.722s-.214-.645-.786-1.004c-.785-.43-2.357 0-3 1.22l-1.5 2.726-.571 1.434-2.143-1.147 3.429-6.313.642-1.722 2.286.933-.786 1.434s1.572-1.076 2.929-.287c.5.287.857.718 1 1.292l-1.5 1.434zm6.5 6.816l-.572.143-4.071-2.798c-.714 1.22-.786 2.583.357 3.444 1.286.86 3.214.645 3.214.645l-.785 1.722s-1.929.215-3.786-1.076c-2.214-1.506-2.143-4.16-.786-6.026 1.5-2.152 3.857-3.443 6.357-1.722 2.5 1.579.786 4.52.072 5.668zm-3.714-3.946l2.428 1.722c.429-.718.857-1.866.072-2.44-.786-.573-1.715-.143-2.5.718zm9.285 11.837c-.714.789-.714 2.224-.714 2.224L145 33.072s-.072-.574.214-1.22c-.786.072-1.929-.287-2.571-.79-1.429-1.29-1.643-3.586.285-5.81 1.715-2.009 4.715-2.51 6.786-.646l.714.718L152 23.458l1-1.506 2.071 1.435-7.5 8.752zM146 30.632l3.5-4.017s-.429-.502-.929-.933c-.857-.717-2.5-.287-3.643 1.077-1.285 1.506-1.428 2.869-.643 3.515.286.215.929.358 1.715.358zm2.5 6.026c-.572-.574-.5-1.363 0-1.865s1.357-.502 1.928.072c.572.574.429 1.435-.071 1.937-.5.43-1.286.43-1.857-.144zm9.215 11.12l1.714-4.878-.5-.718-2.214 1.578-1.143 1.076-1.428-2.08 8.285-5.81 1.357-1.292 2.143 3.013c1.215 1.793 1.429 4.16-.643 5.596-1.071.789-2.785.86-4.142.143l-1.715 5.74-1.714-2.368zm3.071-5.955c.643.933 2.072 1.148 3.072.43 1.143-.788 1.143-2.008.5-2.94l-.429-.646-3.571 2.51.428.646zm6.286 13.129l-.571-.144-2.358-4.376c-1.214.79-1.857 1.937-1.214 3.228.714 1.363 2.5 2.08 2.5 2.08l-1.428 1.149s-1.786-.646-2.858-2.727c-1.285-2.367 0-4.663 2.072-5.739 2.286-1.22 5-1.22 6.428 1.363 1.429 2.727-1.428 4.52-2.571 5.166zm-1.5-5.237l1.429 2.654c.714-.43 1.642-1.291 1.142-2.08-.5-.861-1.5-.933-2.571-.574zM166 60.26l-1.358.789-.928-2.224 10.571-4.591 1.572-.933 1.214 2.153zm1.714 4.663l-1.357.718-.786-2.296 6.786-2.44 1.643-.86 1.071 2.224-7.357 2.654zm10.357-4.878c.215.574-.143 1.291-.785 1.578a1.195 1.195 0 01-1.5-.717c-.215-.646.071-1.363.714-1.578.643-.287 1.357.071 1.571.717zm-3.357 5.524s1.643.932 2.286 3.3c.357 1.435.214 3.156-1.643 3.587l-4.5 1.147c-1.071.288-1.857 1.435-1.857 1.435l-.786-2.152s.357-.574.929-.86c-.857-.503-1.572-1.364-1.786-2.296-.357-1.507.429-2.798 1.643-3.157 1.786-.502 3.714.933 4.643 4.018l.357-.072c1.214-.287 1.643-.933 1.429-1.65-.358-1.363-1.929-2.009-1.929-2.009l1.214-1.291zm-4.428 5.954l1.785-.43c-.285-.861-.928-2.583-2.214-2.296-.5.144-.857.574-.714 1.291.143.503.714 1.148 1.143 1.435zM183 77.047l-4.929.645s.786.79.929 1.866c.286 1.865-1 3.945-4 4.376-2.643.359-5.143-1.22-5.572-4.018-.214-1.506.358-2.94 1.072-3.443l10.071-1.363 1.786-.502.643 2.439zm-11.572 1.578c-.285.359-.357.861-.285 1.363.143 1.148 1.643 1.865 3.428 1.578 1.786-.215 2.857-1.363 2.715-2.439-.072-.717-.572-1.291-.572-1.291l-5.286.79zm.572 9.972l-1.5.287-.071-2.439 11.5-.503 1.785-.358.358 2.439zm2.857 9.756l-.428-.43.214-4.95c-1.429 0-2.643.717-2.714 2.152-.072 1.578 1.142 3.085 1.142 3.085l-1.857.215s-1.214-1.507-1.143-3.802c.143-2.654 2.358-4.018 4.715-3.874 2.571.072 4.928 1.506 4.857 4.448-.072 3.084-3.429 3.156-4.786 3.156zm1.357-5.308l-.143 3.013c.858 0 2-.287 2.072-1.22.071-1.004-.786-1.506-1.929-1.793zm-6.571 7.963a1.263 1.263 0 011.5-1.148c.643.072 1.286.717 1.143 1.506-.071.789-.857 1.22-1.5 1.148-.714-.143-1.286-.789-1.143-1.506zM167 113.562l.786-1.435 10.214-.789 2.429-.502-.786 2.726-7.929.43-1.428-.143 1.285.789 6.429 4.735-.643 2.152zm.143 13.343l-.214-.574 1.929-4.591c-1.358-.502-2.715-.215-3.286 1.076-.572 1.435 0 3.3 0 3.3l-1.786-.431s-.643-1.793.286-3.945c1-2.439 3.643-2.941 5.714-2.009 2.429 1.005 4.143 3.157 2.929 5.883-1.143 2.869-4.357 1.793-5.572 1.291zm3.072-4.448l-1.143 2.726c.786.287 2 .431 2.357-.43.429-.861-.214-1.65-1.214-2.296zm-4.929 12.196s.643-.215 1-.789c.429-.789 0-2.368-1.286-3.013l-2.714-1.507-1.429-.574 1.143-2.152 6.286 3.443 1.714.646-.928 2.296-1.429-.789s1.072 1.578.286 2.941c-.286.502-.714.861-1.286 1.004l-1.357-1.506zm-6.786 1.076l-1.429-.646 1.286-2.009 6.071 3.946 1.643.789-1.143 2.224-6.428-4.304zm10.143 5.308c-.357.574-1.143.718-1.715.287-.571-.358-.714-1.147-.357-1.65.357-.574 1.143-.789 1.715-.43.571.43.714 1.22.357 1.793zm-16.786 3.444l-1.286-.789 1.5-1.865 5.286 4.232.5.359 2.286-2.87-4.143-3.371-1.714-1.148 1.5-1.865 5.714 4.663.714-.861 1.286 1.076-.714.861.714.574c2 1.65 1.357 4.232.428 5.452-1.5 1.865-3.071 2.008-3.071 2.008l-1.071-1.65c.642-.071 1.928-.574 2.571-1.363.643-.861.786-1.865-.286-2.726l-.643-.574-2.142 2.726-1.358 2.081-6.071-4.95zm2.857 6.313s0 1.937-1.714 3.587c-1.072 1.004-2.643 1.722-3.929.359l-3.214-3.372c-.715-.789-2.143-.933-2.143-.933l1.428-1.721s.643.071 1.215.358c0-1.004.428-2.008 1.143-2.726 1.142-1.076 2.642-1.004 3.5-.143 1.285 1.363 1 3.73-1.215 6.026l.215.215c.857.933 1.571.933 2.142.43 1-1.004.858-2.654.858-2.654l1.714.574zm-7.286-.933l1.286 1.292c.571-.646 1.786-2.081.857-3.085-.357-.359-.929-.502-1.429 0-.428.43-.714 1.219-.714 1.793zm1.429 13.846l-3-3.946s-.286 1.076-1.143 1.722c-1.5 1.148-3.929 1.076-5.786-1.363-1.643-2.152-1.5-5.094.786-6.815 1.214-.933 2.714-1.148 3.5-.718l6.143 8.107 1.285 1.291-1.785 1.722zm-7.072-9.326c-.428-.072-.928.072-1.357.43-.928.718-.786 2.368.286 3.802 1.071 1.435 2.571 1.866 3.428 1.148.572-.43.786-1.148.786-1.148l-3.143-4.232zm-8.356 5.38l-1-1.219 2.071-1.292 6.072 9.757 1.142 1.435-1.928 1.506zm-7 7.317l.214-.573 4.429-2.296c-.714-1.22-1.929-1.937-3.143-1.291-1.357.717-2.071 2.511-2.071 2.511l-1.143-1.507s.714-1.793 2.786-2.869c2.357-1.22 4.642.143 5.714 2.152 1.214 2.295 1.143 5.021-1.5 6.384-2.929 1.579-4.714-1.363-5.286-2.511zm5.214-1.363l-2.642 1.363c.428.718 1.214 1.65 2.071 1.22.857-.502.857-1.506.571-2.583zm-10.142-1.936c.714-.287 1.428.071 1.714.717a1.29 1.29 0 01-.714 1.722c-.715.287-1.5-.072-1.715-.718a1.29 1.29 0 01.715-1.721zm-17.786 11.549l.714 1.076-.572-5.882-.357-1.507 2.215-.215.928 10.115.429 1.794-1.857.143-5.643-6.6-3.857 7.533-1.572.143-.928-10.402-.358-1.506 2.5-.215.715 7.389.428-1.22 3-5.452zm-20.43-1.219l.429-.431 4.928.287c0-1.434-.643-2.654-2.071-2.726-1.572-.072-3.072 1.076-3.072 1.076l-.214-1.865s1.5-1.219 3.786-1.076c2.643.144 3.928 2.439 3.786 4.735-.143 2.582-1.572 4.95-4.5 4.735-3.072-.072-3.072-3.444-3.072-4.735zm5.214 1.435l-3-.144c0 .861.215 2.009 1.215 2.08 1 0 1.571-.86 1.785-1.936zm-7.642 1.578s-1.5 1.148-3.928.717c-1.43-.287-2.93-1.148-2.572-2.941l.786-4.591c.214-1.076-.572-2.296-.572-2.296l2.286.144s.357.573.429 1.219c.785-.574 1.857-.861 2.857-.646 1.5.287 2.357 1.579 2.143 2.727-.286 1.865-2.429 3.013-5.572 2.582l-.071.359c-.215 1.219.143 1.865.928 2.008 1.358.216 2.643-.932 2.643-.932l.643 1.65zm-3.5-6.457l-.286 1.794c.858.072 2.786.215 3-1.148.072-.502-.142-1.004-.857-1.148-.643-.071-1.428.215-1.857.502zm-4.5-.358s-1.071-1.579-2.428-2.009c-.643-.144-1.358-.072-1.5.502-.358 1.363 3.785 2.583 3.071 5.094-.571 2.152-2.429 2.295-4.214 1.793-1.5-.43-2.286-1.291-2.286-1.291l.929-1.507s.642 1.005 2.214 1.435c.571.143 1.214 0 1.357-.502.357-1.363-3.857-2.439-3-5.309.5-1.793 2.071-2.367 4-1.793 1.929.574 2.643 1.865 2.643 1.865l-.786 1.722zm-12.571-7.389s.214.717.071 1.363c0 0 1.572-.718 3.286 0 1.286.502 2.214 1.721 1.643 3.156l-1.929 4.807-.428 1.793-2.358-.717 2.072-5.022c.571-1.435.714-2.152-.143-2.439-1.357-.574-2.5.143-2.5.143l-1.714 4.161-.429 1.794-2.357-.718 2.643-6.528c.428-1.004 0-2.367 0-2.367l2.143.574zm-11.643 1.721s.214.646.785 1.005c.786.43 2.357 0 3-1.292l1.5-2.726.572-1.434 2.143 1.147-3.429 6.313-.643 1.722-2.286-.932.786-1.435s-1.571 1.076-2.928.287c-.5-.287-.858-.718-1-1.292l1.5-1.363zm-6.5-6.815l.571-.143 4.072 2.798c.714-1.22.786-2.583-.357-3.444-1.286-.861-3.215-.646-3.215-.646l.786-1.721s1.929-.215 3.786 1.076c2.214 1.506 2.143 4.161.857 6.026-1.5 2.152-3.857 3.443-6.357 1.722-2.572-1.579-.857-4.52-.143-5.668zm3.714 3.946l-2.5-1.65c-.428.717-.857 1.865-.071 2.439.857.502 1.786.072 2.571-.789zM36.5 149.933c.714-.789.714-2.224.714-2.224L39.071 149s.072.574-.214 1.22c.786-.072 1.929.287 2.572.789 1.428 1.291 1.642 3.587-.286 5.811-1.714 2.009-4.714 2.511-6.786.646l-.714-.718-1.572 1.865-1 1.507L29 158.685l7.5-8.752zm1.643 1.507l-3.5 4.017s.428.502.928.932c.858.718 2.5.287 3.643-1.076 1.286-1.506 1.357-2.869.643-3.515-.286-.215-.928-.358-1.714-.358zm-2.57-6.026c.57.573.499 1.363 0 1.865-.5.502-1.358.502-1.93-.072-.57-.574-.428-1.435.072-1.937.5-.359 1.357-.43 1.857.144zm-9.216-11.12l-1.714 4.878.5.718 2.214-1.579 1.143-1.076 1.429 2.081-8.215 5.811-1.357 1.291-2.143-3.013c-1.214-1.794-1.5-4.161.572-5.596 1.071-.789 2.785-.861 4.143-.143l1.714-5.739 1.714 2.367zm-3 5.954c-.643-.932-2.071-1.147-3.071-.43-1.143.789-1.143 2.009-.5 2.941l.428.646 3.572-2.511-.429-.646zM17 127.192l.571.144 2.357 4.376c1.215-.79 1.858-1.937 1.215-3.229-.715-1.363-2.572-2.08-2.572-2.08L20 125.255s1.786.646 2.928 2.726c1.286 2.368 0 4.663-2.071 5.739-2.286 1.22-5 1.292-6.428-1.363-1.43-2.726 1.428-4.519 2.57-5.165zm1.5 5.165l-1.429-2.654c-.714.43-1.571 1.291-1.143 2.08.5.933 1.5.933 2.572.574zm-.429-10.474l1.358-.789.928 2.224-10.571 4.591-1.572.933L7 126.69zM6 122.099c-.214-.574.143-1.292.786-1.579a1.196 1.196 0 011.5.718c.214.645-.072 1.363-.715 1.578-.643.287-1.357-.072-1.571-.717zm10.357-4.95l1.357-.718.786 2.296-6.786 2.439-1.643.861L9 119.803l7.357-2.654zm-7-.646s-1.643-.933-2.286-3.3c-.357-1.435-.214-3.156 1.643-3.587l4.5-1.148c1.071-.287 1.857-1.434 1.857-1.434l.786 2.152s-.357.574-.929.861c.857.502 1.572 1.363 1.786 2.295.428 1.507-.429 2.798-1.571 3.157-1.786.502-3.715-.933-4.643-4.018l-.357.072c-1.215.287-1.643.933-1.43 1.65.358 1.363 1.93 2.009 1.93 2.009l-1.286 1.291zm4.357-5.883l-1.786.431c.286.861.929 2.583 2.286 2.296.5-.144.857-.574.714-1.292-.143-.502-.714-1.148-1.214-1.435zM1 105.097l4.929-.646s-.786-.789-.929-1.865c-.286-1.865 1-3.946 4-4.376 2.643-.359 5.143 1.22 5.571 4.017.215 1.507-.357 2.941-1.071 3.443l-10.071 1.364-1.786.502L1 105.097zm11.571-1.579c.286-.358.358-.861.286-1.363-.143-1.148-1.643-1.865-3.428-1.578-1.786.287-2.858 1.363-2.715 2.439.072.718.572 1.291.572 1.291l5.285-.789zM12 93.547l1.5-.287.143 2.439-11.5.574-1.786.358L0 94.121zM9.143 83.79l.428.43-.214 4.95c1.429 0 2.643-.717 2.643-2.151.071-1.579-1.143-3.085-1.143-3.085l1.857-.215s1.214 1.506 1.143 3.802c-.071 2.654-2.357 4.017-4.643 3.874-2.571-.072-4.928-1.507-4.857-4.448.071-3.085 3.429-3.157 4.786-3.157zm-1.357 5.237l.142-3.013c-.857 0-2 .287-2.071 1.22-.071 1.076.786 1.578 1.929 1.793zm6.571-7.89a1.263 1.263 0 01-1.5 1.147c-.643-.072-1.285-.718-1.143-1.507a1.386 1.386 0 011.5-1.147c.715.071 1.286.717 1.143 1.506zM17 68.582l-.786 1.435L6 70.806l-2.429.502.786-2.726 7.857-.431 1.429.144-1.286-.717-6.429-4.735.643-2.152zm-.142-13.343l.214.574-1.929 4.59c1.357.503 2.715.216 3.286-1.075.572-1.435 0-3.3 0-3.3l1.786.43s.643 1.794-.286 3.946c-1 2.439-3.643 2.941-5.714 2.008-2.429-1.004-4.143-3.084-3-5.882 1.214-2.87 4.357-1.794 5.643-1.291zm-3.143 4.447l1.143-2.797c-.786-.287-2-.43-2.357.43-.358.933.285 1.722 1.214 2.367zm4.928-12.267s-.643.215-1 .79c-.429.788 0 2.366 1.286 3.012l2.714 1.507 1.429.573-1.143 2.153-6.286-3.444-1.714-.645.928-2.296 1.429.79s-1.072-1.58-.286-2.942c.286-.502.714-.861 1.286-1.005l1.357 1.507zm-3.357-6.313c.357-.574 1.142-.717 1.714-.359.571.36.714 1.148.357 1.65-.357.574-1.143.79-1.714.43-.572-.358-.715-1.147-.357-1.72zm10.142 5.237l1.429.646-1.286 2.008-6.071-3.945-1.643-.718L19 42.11l6.428 4.233zm6.643-8.752l1.286.789-1.5 1.865-5.286-4.232-.5-.359-2.286 2.87 4.143 3.371 1.714 1.148-1.5 1.865-5.714-4.591-.714.86-1.286-1.075.714-.861-.714-.574c-2-1.65-1.357-4.233-.428-5.452 1.5-1.865 3.071-2.009 3.071-2.009l1.071 1.65c-.642.072-1.928.574-2.57 1.363-.644.79-.787 1.865.285 2.726l.643.574 2.142-2.726L26 32.713l6.071 4.878zm-2.857-6.313s0-1.937 1.714-3.587c1.072-1.004 2.643-1.722 3.929-.359l3.214 3.3c.714.79 2.143.933 2.143.933l-1.429 1.721s-.643-.071-1.214-.358a3.929 3.929 0 01-1.143 2.726c-1.143 1.076-2.643 1.004-3.5.143-1.286-1.363-1-3.73 1.214-6.026l-.214-.215c-.857-.933-1.571-.933-2.143-.43-1 1.004-.785 2.654-.785 2.654l-1.786-.502zm7.286.933l-1.286-1.292c-.572.646-1.786 2.152-.857 3.085.357.359.928.502 1.428 0 .429-.43.715-1.22.715-1.793zM35 18.365l3 3.946s.285-1.076 1.142-1.722c1.5-1.148 3.929-1.076 5.786 1.363 1.643 2.152 1.5 5.093-.714 6.815-1.214.933-2.714 1.148-3.5.717L34.5 21.378l-1.286-1.291L35 18.365zm7.142 9.326c.429.072.929-.072 1.358-.43.857-.718.785-2.368-.286-3.803-1.072-1.434-2.572-1.865-3.5-1.147-.572.43-.786 1.147-.786 1.147l3.214 4.233zm8.286-5.38l1 1.219-2.071 1.292-6.143-9.757-1.071-1.435 1.928-1.578zm7.072-7.318l-.215.574-4.428 2.296c.714 1.22 1.928 1.937 3.143 1.291 1.357-.717 2.071-2.51 2.071-2.51l1.143 1.506s-.714 1.793-2.786 2.87c-2.357 1.219-4.643-.144-5.714-2.153-1.214-2.296-1.143-5.022 1.5-6.385 2.928-1.578 4.643 1.292 5.286 2.511zm-5.215 1.363l2.643-1.363c-.428-.717-1.214-1.65-2.071-1.22-.857.503-.929 1.507-.572 2.583zm10.072 1.866c-.714.287-1.429-.072-1.714-.718a1.29 1.29 0 01.714-1.722c.714-.287 1.5.072 1.714.718.286.717 0 1.435-.714 1.722z"/></g></svg>